<svg version="1" xmlns="http://www.w3.org/2000/svg" width="682.667" height="682.667" viewBox="0 0 512.000000 512.000000"><path d="M59 256v256h394l-.1-220.8V70.5l-36.5-35.3L379.9 0H59v256zM362 61v27h57v390H93V34h269v27z"/><path d="M192.8 222.9c-21 6.9-32.7 24.4-32.8 49 0 23.6 12.3 41.8 32.9 48.1 7.6 2.4 22.1 2.9 29.2 1 16.1-4.4 29.1-18.5 30.6-33.5l.6-5.5h-29.2l-1.1 4.1c-.6 2.2-2.6 5.7-4.4 7.6-2.8 3.1-4 3.7-8.8 4.1-11.6.9-18.7-7.2-19.6-22.7-.8-13.8 2.4-22.9 9.8-27.9 2.9-2 4.4-2.3 9.3-2 4.9.4 6.2.9 9.2 3.8 1.9 1.8 4 4.9 4.6 6.7l1.1 3.3H253l-.6-4.3c-1.8-11.5-8.5-22.1-17.4-27.5-7.8-4.7-11-5.4-24.5-5.8-9.7-.3-13.1 0-17.7 1.5zM256.3 224.4c.3.8 5.6 18.2 11.7 38.8 6.1 20.5 12.5 41.7 14.1 47l3 9.8h33.6l14.7-47.1c8.1-25.8 15-47.7 15.3-48.5.4-1.2-1.9-1.4-15.1-1.4h-15.5l-1 3.7c-4.4 17.2-14.3 53.9-14.6 54.1-.5.5-1.2-1.9-9.3-32.3l-6.8-25-15.3-.3c-13.1-.2-15.3 0-14.8 1.2z"/></svg>